<svg width="32" height="32" viewBox="0 0 32 32" fill="none" xmlns="http://www.w3.org/2000/svg">
<path d="M16 0C7.17676 0 0 7.17676 0 16C0 20.0106 1.4776 23.8522 4.22165 26.8074C7.30346 30.1425 11.4828 32 16 32C20.5172 32 24.6965 30.1425 27.7784 26.8074C30.4802 23.8523 32 20.0106 32 16C32 7.17676 24.8232 0 16 0Z" fill="#E0F3FF"/>
<path d="M26.0584 24.6092C26.4008 24.2682 26.7004 23.8845 27 23.4583C24.2179 20.4316 20.7938 18.6412 17.1556 18.3002C20.2802 17.746 22.6771 15.0177 22.6771 11.6927C22.6771 7.98399 19.681 5 16 5C12.319 5 9.32294 7.98399 9.32294 11.6927C9.32294 14.9752 11.7198 17.746 14.8444 18.3002C11.1634 18.5986 7.78209 20.389 5 23.4583C5.2996 23.8419 5.5992 24.2256 5.94165 24.6092C8.59536 27.4228 12.1479 29 16 29C19.8521 29 23.4046 27.4228 26.0584 24.6092Z" fill="white"/>
</svg>
