<svg width="16" height="16" viewBox="0 0 16 16" fill="none" xmlns="http://www.w3.org/2000/svg">
<path fill-rule="evenodd" clip-rule="evenodd" d="M0.707001 0.707079C0.316498 1.0976 0.316498 1.73077 0.707001 2.12129L6.36386 7.77813L0.70694 13.435C0.316437 13.8256 0.316437 14.4587 0.70694 14.8492C1.0975 15.2398 1.73068 15.2398 2.12119 14.8492L7.77811 9.19235L13.435 14.8492C13.8255 15.2397 14.4586 15.2397 14.8492 14.8492C15.2397 14.4587 15.2397 13.8255 14.8492 13.435L9.19229 7.77813L14.8491 2.12132C15.2397 1.7308 15.2397 1.09764 14.8491 0.707109C14.4586 0.316584 13.8254 0.316584 13.4349 0.707109L7.77811 6.36392L2.12125 0.707079C1.73068 0.316553 1.09756 0.316553 0.707001 0.707079Z" fill="#455AF7"/>
</svg>
