<svg width="19" height="21" viewBox="0 0 19 21" fill="none" xmlns="http://www.w3.org/2000/svg">
<path d="M18.1518 14.8477C18.6203 14.8477 19 14.4804 19 14.0273V10.9922C19 9.18291 17.478 7.71094 15.6071 7.71094H14.5877V4.81794C14.5877 2.16132 12.3047 0 9.49843 0C6.6922 0 4.40914 2.16132 4.40914 4.81794V7.71094H3.39286C1.52204 7.71094 0 9.18291 0 10.9922V17.7188C0 19.528 1.52204 21 3.39286 21H15.6071C17.478 21 19 19.528 19 17.7188C19 17.2657 18.6203 16.8984 18.1518 16.8984C17.6833 16.8984 17.3036 17.2657 17.3036 17.7188C17.3036 18.6234 16.5426 19.3594 15.6071 19.3594H3.39286C2.45745 19.3594 1.69643 18.6234 1.69643 17.7188V10.9922C1.69643 10.0875 2.45745 9.35156 3.39286 9.35156H15.6071C16.5426 9.35156 17.3036 10.0875 17.3036 10.9922V14.0273C17.3036 14.4804 17.6833 14.8477 18.1518 14.8477ZM12.8913 7.71094H6.10557V4.81794C6.10557 3.06596 7.62761 1.64062 9.49843 1.64062C11.3693 1.64062 12.8913 3.06596 12.8913 4.81794V7.71094Z" fill="white"/>
<rect x="8.45569" y="11.8333" width="2.18848" height="5.19503" rx="1.09424" fill="white"/>
</svg>
