<svg width="33" height="33" viewBox="0 0 33 33" fill="none" xmlns="http://www.w3.org/2000/svg">
<g filter="url(#filter0_d)">
<path d="M7.00781 12.6562C7.64598 12.6562 8.22359 12.4002 8.65041 11.989L10.9919 13.1597C10.9802 13.2551 10.9629 13.3488 10.9629 13.4473C10.9629 14.7557 12.0275 15.8203 13.3359 15.8203C14.6444 15.8203 15.709 14.7557 15.709 13.4473C15.709 13.082 15.6192 12.7401 15.4711 12.4307L18.6475 9.25426C18.9569 9.40237 19.2988 9.49219 19.6641 9.49219C20.9725 9.49219 22.0371 8.42761 22.0371 7.11914C22.0371 6.87277 21.9887 6.63979 21.9187 6.41629L24.6786 4.34688C25.0551 4.5984 25.5065 4.74609 25.9922 4.74609C27.3007 4.74609 28.3652 3.68152 28.3652 2.37305C28.3652 1.06458 27.3007 0 25.9922 0C24.6837 0 23.6191 1.06458 23.6191 2.37305C23.6191 2.61942 23.6675 2.85239 23.7376 3.0759L20.9777 5.14531C20.6011 4.89379 20.1498 4.74609 19.6641 4.74609C18.3556 4.74609 17.291 5.81067 17.291 7.11914C17.291 7.48437 17.3808 7.82632 17.5289 8.13572L14.3525 11.3121C14.0431 11.164 13.7012 11.0742 13.3359 11.0742C12.6978 11.0742 12.1202 11.3303 11.6933 11.7414L9.35181 10.5708C9.36356 10.4754 9.38086 10.3817 9.38086 10.2832C9.38086 8.97473 8.31628 7.91016 7.00781 7.91016C5.69934 7.91016 4.63477 8.97473 4.63477 10.2832C4.63477 11.5917 5.69934 12.6562 7.00781 12.6562V12.6562Z" fill="url(#paint0_linear)"/>
<path d="M29.209 25.418H28.3652V8.70117C28.3652 8.26405 28.0113 7.91016 27.5742 7.91016H24.4102C23.973 7.91016 23.6191 8.26405 23.6191 8.70117V25.418H22.0371V13.4473C22.0371 13.0101 21.6832 12.6562 21.2461 12.6562H18.082C17.6449 12.6562 17.291 13.0101 17.291 13.4473V25.418H15.709V19.7754C15.709 19.3383 15.3551 18.9844 14.918 18.9844H11.7539C11.3168 18.9844 10.9629 19.3383 10.9629 19.7754V25.418H9.38086V16.6113C9.38086 16.1742 9.02696 15.8203 8.58984 15.8203H5.42578C4.98866 15.8203 4.63477 16.1742 4.63477 16.6113V25.418H3.79102C3.3539 25.418 3 25.7719 3 26.209C3 26.6461 3.3539 27 3.79102 27H29.209C29.6461 27 30 26.6461 30 26.209C30 25.7719 29.6461 25.418 29.209 25.418Z" fill="url(#paint1_linear)"/>
</g>
<defs>
<filter id="filter0_d" x="0" y="0" width="33" height="33" filterUnits="userSpaceOnUse" color-interpolation-filters="sRGB">
<feFlood flood-opacity="0" result="BackgroundImageFix"/>
<feColorMatrix in="SourceAlpha" type="matrix" values="0 0 0 0 0 0 0 0 0 0 0 0 0 0 0 0 0 0 127 0"/>
<feOffset dy="3"/>
<feGaussianBlur stdDeviation="1.5"/>
<feColorMatrix type="matrix" values="0 0 0 0 0 0 0 0 0 0 0 0 0 0 0 0 0 0 0.06 0"/>
<feBlend mode="normal" in2="BackgroundImageFix" result="effect1_dropShadow"/>
<feBlend mode="normal" in="SourceGraphic" in2="effect1_dropShadow" result="shape"/>
</filter>
<linearGradient id="paint0_linear" x1="7.71094" y1="12.8151" x2="41.6032" y2="-21.7506" gradientUnits="userSpaceOnUse">
<stop stop-color="#4976EC"/>
<stop offset="1" stop-color="#4976EC" stop-opacity="0"/>
</linearGradient>
<linearGradient id="paint1_linear" x1="6.5" y1="23.3737" x2="47.3734" y2="-15.9319" gradientUnits="userSpaceOnUse">
<stop stop-color="#4976EC"/>
<stop offset="1" stop-color="#4976EC" stop-opacity="0"/>
</linearGradient>
</defs>
</svg>
