<svg width="23" height="23" viewBox="0 0 23 23" fill="none" xmlns="http://www.w3.org/2000/svg">
<path d="M21.7422 20.4484L16.4504 15.1566C17.7621 13.5574 18.5527 11.509 18.5527 9.27637C18.5527 4.15527 14.3975 0 9.27637 0C4.15078 0 0 4.15527 0 9.27637C0 14.3975 4.15078 18.5527 9.27637 18.5527C11.509 18.5527 13.5529 17.7666 15.1521 16.4549L20.4439 21.7422C20.8033 22.1016 21.3828 22.1016 21.7422 21.7422C22.1016 21.3873 22.1016 20.8033 21.7422 20.4484ZM9.27637 16.7064C5.175 16.7064 1.8418 13.3732 1.8418 9.27637C1.8418 5.17949 5.175 1.8418 9.27637 1.8418C13.3732 1.8418 16.7109 5.17949 16.7109 9.27637C16.7109 13.3732 13.3732 16.7064 9.27637 16.7064Z" fill="black"/>
</svg>
